<svg width="25" height="24" viewBox="0 0 25 24" fill="none" xmlns="http://www.w3.org/2000/svg">
<g id="camera">
<g id="Icon">
<path d="M12.5 16C14.1569 16 15.5 14.6569 15.5 13C15.5 11.3431 14.1569 10 12.5 10C10.8431 10 9.5 11.3431 9.5 13C9.5 14.6569 10.8431 16 12.5 16Z" stroke="white" stroke-width="2" stroke-linecap="round" stroke-linejoin="round"/>
<path d="M3.5 16.8V9.2C3.5 8.0799 3.5 7.51984 3.71799 7.09202C3.90973 6.71569 4.21569 6.40973 4.59202 6.21799C5.01984 6 5.5799 6 6.7 6H7.75464C7.87758 6 7.93905 6 7.99576 5.9935C8.29166 5.95961 8.55705 5.79559 8.71969 5.54609C8.75086 5.49827 8.77836 5.44328 8.83333 5.33333C8.94329 5.11342 8.99827 5.00346 9.06062 4.90782C9.3859 4.40882 9.91668 4.08078 10.5085 4.01299C10.6219 4 10.7448 4 10.9907 4H14.0093C14.2552 4 14.3781 4 14.4915 4.01299C15.0833 4.08078 15.6141 4.40882 15.9394 4.90782C16.0017 5.00345 16.0567 5.11345 16.1667 5.33333C16.2216 5.44329 16.2491 5.49827 16.2803 5.54609C16.443 5.79559 16.7083 5.95961 17.0042 5.9935C17.061 6 17.1224 6 17.2454 6H18.3C19.4201 6 19.9802 6 20.408 6.21799C20.7843 6.40973 21.0903 6.71569 21.282 7.09202C21.5 7.51984 21.5 8.0799 21.5 9.2V16.8C21.5 17.9201 21.5 18.4802 21.282 18.908C21.0903 19.2843 20.7843 19.5903 20.408 19.782C19.9802 20 19.4201 20 18.3 20H6.7C5.5799 20 5.01984 20 4.59202 19.782C4.21569 19.5903 3.90973 19.2843 3.71799 18.908C3.5 18.4802 3.5 17.9201 3.5 16.8Z" stroke="white" stroke-width="2" stroke-linecap="round" stroke-linejoin="round"/>
</g>
</g>
</svg>
