<svg width="24" height="24" viewBox="0 0 24 24" fill="none" xmlns="http://www.w3.org/2000/svg">
<g id="trash-xmark-alt">
<path id="Icon" fill-rule="evenodd" clip-rule="evenodd" d="M11.1614 2.00014C10.4779 1.99912 9.87802 1.99822 9.3435 2.20845C8.87612 2.39227 8.46236 2.69049 8.14017 3.07576C7.77171 3.51636 7.58286 4.08574 7.3677 4.73446L7.27924 5.00028H4C3.44772 5.00028 3 5.448 3 6.00028C3 6.55257 3.44772 7.00028 4 7.00028H5.06445L5.80553 18.1166C5.83849 18.6111 5.86702 19.0394 5.91878 19.392C5.9736 19.7653 6.0642 20.1338 6.26443 20.4853C6.56454 21.0121 7.0172 21.4356 7.56278 21.7C7.9268 21.8764 8.30052 21.9423 8.67668 21.9721C9.03186 22.0003 9.46109 22.0003 9.95674 22.0003H14.0432C14.5389 22.0003 14.9681 22.0003 15.3233 21.9721C15.6995 21.9423 16.0732 21.8764 16.4372 21.7C16.9828 21.4356 17.4355 21.0121 17.7356 20.4853C17.9358 20.1338 18.0264 19.7653 18.0812 19.392C18.133 19.0394 18.1615 18.6112 18.1945 18.1166L18.9356 7.00028H20C20.5523 7.00028 21 6.55257 21 6.00028C21 5.448 20.5523 5.00028 20 5.00028H16.7208L16.6323 4.73445C16.4171 4.08573 16.2283 3.51636 15.8598 3.07576C15.5376 2.69048 15.1239 2.39227 14.6565 2.20845C14.122 1.99822 13.5221 1.99912 12.8386 2.00014H11.1614ZM9.39062 5.00028H14.6094C14.4558 4.56109 14.3961 4.44307 14.3256 4.35877C14.2182 4.23035 14.0803 4.13095 13.9245 4.06967C13.7908 4.01709 13.6083 4.00028 12.6936 4.00028H11.3064C10.3917 4.00028 10.2092 4.01709 10.0755 4.06967C9.91972 4.13094 9.7818 4.23035 9.6744 4.35877C9.60391 4.44307 9.54424 4.56109 9.39062 5.00028ZM10.7071 11.2934C10.3166 10.9029 9.68342 10.9029 9.29289 11.2934C8.90237 11.6839 8.90237 12.3171 9.29289 12.7076L10.5858 14.0005L9.29289 15.2934C8.90237 15.6839 8.90237 16.3171 9.29289 16.7076C9.68342 17.0981 10.3166 17.0981 10.7071 16.7076L12 15.4147L13.2929 16.7076C13.6834 17.0981 14.3166 17.0981 14.7071 16.7076C15.0976 16.3171 15.0976 15.6839 14.7071 15.2934L13.4142 14.0005L14.7071 12.7076C15.0976 12.3171 15.0976 11.6839 14.7071 11.2934C14.3166 10.9029 13.6834 10.9029 13.2929 11.2934L12 12.5863L10.7071 11.2934Z" fill="#F68801"/>
</g>
</svg>
