<svg width="150" height="150" viewBox="0 0 150 150" fill="none" xmlns="http://www.w3.org/2000/svg">
<path d="M40.8486 135.756C40.8486 125.304 39.4844 110.121 38.7269 106.125C38.6624 105.786 38.1111 105.867 38.1194 106.207C38.3856 112.172 39.0794 113.857 39.6194 127.747C39.6501 128.583 39.9411 136.655 39.7896 138.12C39.8061 138.468 39.7167 138.813 39.5331 139.109C39.3496 139.406 39.0805 139.64 38.7614 139.78C37.4939 140.166 35.4681 139.122 34.9311 135.488C34.8119 134.69 32.9196 115.03 32.8011 113.813C30.2894 87.8628 29.4539 83.5128 31.5059 83.203C33.7161 82.8633 34.9476 85.3165 35.2956 87.0903C35.3209 87.1742 35.3752 87.2463 35.4489 87.2937C35.5226 87.3411 35.6107 87.3607 35.6976 87.349C35.7844 87.3372 35.8642 87.2949 35.9226 87.2296C35.9811 87.1643 36.0143 87.0804 36.0164 86.9928C35.8379 84.8928 34.7774 82.6428 32.5176 82.1928C31.8178 82.0182 31.078 82.1135 30.4454 82.4598C29.1704 83.2533 29.3114 85.1883 29.3031 86.476C29.2844 89.4963 29.0669 87.2508 33.6756 134.107C33.8376 135.743 34.0079 137.468 34.9229 138.876C36.8121 141.782 40.4556 141.651 40.8261 138.294C40.8904 137.449 40.8979 136.601 40.8486 135.756Z" fill="#1D2035"/>
<path d="M52.1289 118.013C52.1208 117.941 52.0859 117.874 52.0313 117.827C51.9766 117.779 51.9061 117.754 51.8337 117.756C51.7613 117.758 51.6923 117.788 51.6405 117.838C51.5886 117.889 51.5576 117.957 51.5536 118.029C51.4786 121.188 51.4179 136.574 50.7519 138.735C50.3551 140.03 48.9459 140.104 48.0474 139.237C46.5849 137.817 46.3021 133.954 46.2661 131.917C46.1739 127.535 46.4544 124.605 46.0554 115.389C45.6399 105.767 44.4511 97.0658 44.5734 89.1443C44.5899 87.9135 44.4519 86.4233 44.8974 85.2495C45.4059 83.916 48.0586 84.3435 48.3054 84.5273C49.5346 85.4415 49.7881 86.9415 49.8856 88.3748C49.9726 89.6723 49.9254 89.379 50.6146 103.169C50.571 104.113 50.698 105.057 50.9896 105.956C51.0714 106.142 51.3301 106.061 51.3864 105.907C51.7104 104.951 51.4921 103.68 51.4434 102.682C50.7174 89.2215 50.9049 89.1818 50.5284 87.2558C50.2824 85.9628 49.7176 84.7095 48.4554 84.1808C48.4773 84.1365 48.4877 84.0873 48.4855 84.0379C48.4832 83.9884 48.4685 83.9404 48.4427 83.8982C48.4168 83.856 48.3807 83.8211 48.3377 83.7967C48.2946 83.7722 48.2461 83.7591 48.1966 83.7585C47.0386 83.7833 45.8641 83.0835 44.8111 83.8883C44.4736 84.2105 44.2066 84.5992 44.0269 85.0299C43.8472 85.4605 43.7587 85.9237 43.7671 86.3903C43.1799 93.2153 44.6469 105.124 45.0871 113.915C45.5859 123.829 45.2469 127.555 45.3699 132.136C45.4336 134.328 45.7539 137.965 47.2246 139.658C47.5518 140.054 47.9785 140.356 48.4609 140.533C48.9434 140.709 49.4641 140.754 49.9696 140.663C50.4577 140.517 50.8895 140.226 51.2067 139.828C51.5239 139.429 51.7112 138.943 51.7434 138.435C52.3922 131.647 52.5211 124.82 52.1289 118.013Z" fill="#1D2035"/>
<path d="M64.3402 85.621C64.0652 84.9779 63.603 84.4325 63.0138 84.0557C62.4246 83.6788 61.7356 83.4881 61.0364 83.5083C60.3572 83.5604 59.7099 83.8178 59.1805 84.2465C58.6511 84.6752 58.2646 85.2548 58.0724 85.9083C57.8039 86.8398 57.8759 87.421 57.9104 91.8333C57.9344 93.9333 57.9989 96.0115 58.0964 98.1085C58.0964 98.1583 58.1162 98.2059 58.1513 98.2411C58.1865 98.2763 58.2342 98.296 58.2839 98.296C58.3337 98.296 58.3814 98.2763 58.4165 98.2411C58.4517 98.2059 58.4714 98.1583 58.4714 98.1085C58.6334 94.7335 58.6657 91.3585 58.6897 87.9708C58.6979 86.5533 58.8682 85.0795 60.3659 84.5043C60.9714 84.2872 61.6373 84.3126 62.2244 84.5753C62.8115 84.8379 63.2743 85.3175 63.5159 85.9135C64.2367 87.3385 64.0672 89.08 64.0589 90.6265C63.9967 102.966 64.1294 127.249 62.9249 135.723C62.7389 137.027 62.3339 138.444 61.1249 139.156C60.873 139.327 60.5845 139.436 60.2827 139.475C59.9809 139.513 59.6742 139.481 59.3873 139.379C59.1005 139.277 58.8416 139.11 58.6314 138.89C58.4212 138.67 58.2657 138.403 58.1774 138.112C57.6592 136.776 57.8212 135.213 57.8294 133.82C57.8729 128.833 58.2044 121.736 58.5254 116.831C58.5502 116.426 57.9427 116.442 57.9022 116.831C57.2855 122.391 56.9593 127.98 56.9249 133.575C56.812 135.02 56.8909 136.474 57.1597 137.899C57.2623 138.456 57.5126 138.975 57.8843 139.403C58.2561 139.83 58.7357 140.15 59.2732 140.328C59.8917 140.448 60.5314 140.393 61.1206 140.17C61.7097 139.947 62.2252 139.564 62.6092 139.065C63.8437 137.583 63.9374 135.651 64.3424 129.558C64.9349 120.017 64.8622 110.56 64.9492 90.3655C64.9552 88.7793 65.0362 87.0955 64.3402 85.621Z" fill="#1D2035"/>
<path d="M75.6817 130.878C75.6149 131.638 75.3502 134.643 75.2557 135.414C75.2525 135.83 75.1429 136.238 74.9373 136.6C74.7317 136.962 74.437 137.264 74.0812 137.48C73.496 137.783 72.8284 137.888 72.1784 137.78C71.3609 137.561 71.4337 136.73 71.4577 136.055C71.5199 134.03 71.5747 132.005 71.6324 129.98C71.3069 129.88 70.9839 129.771 70.6634 129.654C70.5994 131.871 70.5377 134.091 70.4782 136.312C70.4309 136.646 70.4564 136.987 70.5528 137.311C70.6492 137.634 70.8144 137.933 71.0369 138.187C71.2714 138.413 71.5547 138.583 71.8649 138.682C72.1751 138.782 72.504 138.809 72.8264 138.762C73.5253 138.771 74.2094 138.56 74.7819 138.159C75.3543 137.758 75.7864 137.187 76.0169 136.527C76.2419 135.794 76.2487 135.431 76.6394 130.983C76.3194 130.956 76.0002 130.921 75.6817 130.878Z" fill="#1D2035"/>
<path d="M73.38 86.9718C73.6091 85.8947 74.1159 84.8962 74.85 84.0753C75.3442 83.5818 76.308 83.0388 76.923 83.6253C77.4982 84.1758 77.4817 85.1148 77.5545 85.8438C77.583 86.1198 77.608 86.3963 77.6295 86.6733C77.9085 86.6733 78.188 86.6771 78.468 86.6846C78.4295 86.2061 78.3815 85.7288 78.324 85.2528C78.3076 84.5359 78.0855 83.8387 77.6842 83.2443C77.3781 82.8836 76.9504 82.6473 76.4821 82.5802C76.0137 82.513 75.5369 82.6196 75.1417 82.8798C73.6725 83.6426 72.927 85.4216 72.585 87.0993C72.849 87.0513 73.113 87.0093 73.38 86.9718Z" fill="#1D2035"/>
<path d="M31.9577 77.759C36.5567 78.4633 41.2052 78.9733 45.8364 79.3783C50.7124 79.8571 55.6175 79.9682 60.5102 79.7105C66.8034 79.3205 80.1324 77.642 85.3352 73.8155C85.1297 76.4405 85.2287 75.3658 84.3167 87.455C84.7577 87.5655 85.1924 87.6875 85.6209 87.821C86.2959 78.9388 86.9709 69.9853 87.0032 69.5398C87.0684 68.6728 85.7282 68.681 85.6674 69.5315L85.4484 72.3335C82.5054 74.3338 80.5232 75.455 75.2619 76.5605C59.3522 79.8935 50.0619 78.983 34.1492 77.0218C29.1819 76.403 26.2562 75.8008 22.4492 72.827C22.2242 72.6493 21.7929 72.884 22.0037 73.1758C24.1997 76.2523 28.4432 77.2243 31.9577 77.759Z" fill="#1D2035"/>
<path d="M80.7878 131.004C80.3513 135.52 79.9786 138.72 79.7581 139.229C79.5473 139.715 78.9968 139.893 78.5438 140.103C75.0639 141.708 71.4047 142.892 67.6441 143.628C59.4301 145.287 48.2408 145.285 41.4961 144.56C35.5186 143.924 30.4276 141.94 29.2441 140.875C28.6523 140.35 28.7356 139.644 28.5158 137.693C26.2463 115.676 23.5763 100.497 21.1546 73.4697C20.9686 71.3809 20.8066 69.2997 20.4991 67.2184C20.4503 66.8622 19.8991 66.9672 19.8833 67.2994C19.5616 78.5014 24.2768 109.704 27.4628 139.449C27.4588 139.931 27.5629 140.407 27.7675 140.843C27.972 141.279 28.2719 141.663 28.6448 141.968C29.9281 142.914 33.0151 144.056 34.5563 144.495C45.2206 147.6 69.4471 146.918 79.9201 140.842C80.9401 140.251 81.1103 139.223 81.2641 138.162C81.6211 135.738 81.8641 133.297 82.0936 130.854C81.6601 130.918 81.2248 130.968 80.7878 131.004Z" fill="#1D2035"/>
<path d="M52.3498 32.6252C51.35 32.053 49.8073 32.7062 48.7873 32.9815C40.832 35.1385 38.909 35.6365 36.6973 36.4877C36.6288 36.511 36.5716 36.5594 36.5374 36.6232C36.5032 36.6869 36.4944 36.7613 36.5129 36.8313C36.5313 36.9012 36.5757 36.9616 36.6369 37.0001C36.6981 37.0387 36.7717 37.0526 36.8428 37.039C40.7465 36.3745 48.4318 33.9782 50.5678 33.5402C51.1862 33.4937 51.7903 33.3316 52.349 33.0625C52.385 33.0385 52.4144 33.006 52.4348 32.9679C52.4552 32.9298 52.466 32.8873 52.466 32.8441C52.4661 32.8009 52.4555 32.7583 52.4353 32.7201C52.415 32.682 52.3856 32.6494 52.3498 32.6252Z" fill="#1D2035"/>
<path d="M54.4853 42.5745C53.9018 42.5123 54.1103 42.5475 47.4968 44.3153C45.1127 44.8781 42.761 45.5701 40.4521 46.3883C40.3752 46.4139 40.3112 46.4681 40.2732 46.5397C40.2352 46.6112 40.2262 46.6946 40.2479 46.7726C40.2697 46.8507 40.3206 46.9173 40.3902 46.9589C40.4597 47.0004 40.5425 47.0136 40.6216 46.9958C43.0319 46.5475 45.4161 45.9689 47.7638 45.2625C48.9383 44.9625 52.4041 44.04 52.9628 43.8863C53.5664 43.7908 54.1479 43.5875 54.6796 43.2863C54.7491 43.242 54.8026 43.1766 54.8323 43.0997C54.862 43.0228 54.8663 42.9384 54.8446 42.8589C54.8229 42.7793 54.7763 42.7088 54.7117 42.6577C54.647 42.6065 54.5677 42.5774 54.4853 42.5745Z" fill="#1D2035"/>
<path d="M56.6311 48.3239C56.025 48.256 55.4116 48.3451 54.8499 48.5826C51.4749 49.5066 44.8591 51.4094 41.4316 52.5989C41.3933 52.6095 41.3574 52.6277 41.3261 52.6524C41.2949 52.677 41.2688 52.7077 41.2495 52.7425C41.2302 52.7773 41.218 52.8156 41.2137 52.8552C41.2094 52.8948 41.2129 52.9349 41.2242 52.9731C41.2355 53.0112 41.2543 53.0468 41.2795 53.0776C41.3047 53.1085 41.3358 53.134 41.3709 53.1527C41.4061 53.1714 41.4446 53.183 41.4843 53.1866C41.5239 53.1903 41.5639 53.1861 41.6019 53.1741C45.1786 52.4061 50.2854 50.9661 55.1491 49.5951C55.7465 49.5083 56.3122 49.2714 56.7931 48.9066C56.8381 48.8638 56.8706 48.8095 56.8871 48.7496C56.9037 48.6897 56.9036 48.6265 56.887 48.5666C56.8703 48.5068 56.8377 48.4526 56.7927 48.4098C56.7476 48.3671 56.6918 48.3373 56.6311 48.3239Z" fill="#1D2035"/>
<path d="M70.8347 28.9861C67.5458 31.0839 63.7917 32.341 59.9027 32.6469C58.1895 32.6614 56.4865 32.912 54.8417 33.3916C53.797 33.7479 52.2422 34.2496 51.943 35.4564C51.6917 36.4771 52.1207 38.6874 53.5052 38.6716C53.5527 38.6707 53.5988 38.6559 53.638 38.6291C53.6771 38.6023 53.7076 38.5646 53.7257 38.5207C53.7438 38.4769 53.7487 38.4287 53.7397 38.3821C53.7308 38.3354 53.7085 38.2924 53.6755 38.2584C53.219 37.6847 52.9429 36.9886 52.882 36.2581C52.8415 35.4886 53.257 35.1894 53.8945 34.8654C55.5968 34.0809 57.4508 33.6802 59.3252 33.6916C63.5687 33.5289 67.9202 32.1789 71.1242 29.3416C71.3147 29.1751 71.0529 28.8571 70.8347 28.9861Z" fill="#1D2035"/>
<path d="M57.4733 34.7607C56.9221 34.7166 56.3678 34.7881 55.8458 34.9707C55.2672 35.0514 54.7228 35.2928 54.2746 35.6674C54.2394 35.7052 54.2158 35.7522 54.2065 35.803C54.1973 35.8538 54.2028 35.9061 54.2223 35.9538C54.2419 36.0016 54.2747 36.0427 54.317 36.0724C54.3592 36.102 54.409 36.119 54.4606 36.1212C55.1647 36.0984 55.8612 35.9671 56.5253 35.7319C56.8823 35.6569 57.2873 35.5294 57.5753 35.8129C57.8633 36.0964 57.8183 36.6717 57.8101 37.0437C57.8101 37.1639 57.8578 37.2792 57.9428 37.3643C58.0279 37.4493 58.1432 37.4971 58.2634 37.4971C58.3837 37.4971 58.499 37.4493 58.584 37.3643C58.669 37.2792 58.7168 37.1639 58.7168 37.0437C58.7251 36.1369 58.5421 34.9707 57.4733 34.7607Z" fill="#1D2035"/>
<path d="M51.4403 38.4443C46.6126 39.3976 42.5903 39.5693 39.6421 41.4976C39.3826 41.6678 39.5371 42.1373 39.8603 42.0226C42.5047 41.0108 45.2576 40.3096 48.0638 39.9331C48.3818 39.8813 52.0486 39.2873 52.3553 39.1636C52.0229 38.961 51.7157 38.7195 51.4403 38.4443Z" fill="#1D2035"/>
<path d="M129.405 24.6055C124.032 26.0763 109.29 32.9583 93.9939 31.894C92.8514 27.5779 91.4202 23.3433 89.7099 19.219C89.6537 19.0735 89.3214 18.4743 89.3619 18.3693C89.4107 18.2395 89.8712 18.124 90.0017 18.061C98.4197 14.0335 105.506 11.3028 113.331 7.08928C114.867 6.33422 116.328 5.43679 117.696 4.40878C117.988 4.17403 117.672 3.63928 117.321 3.76903C115.844 4.3839 114.406 5.08692 113.013 5.87428C105.02 10.0345 94.2977 14.6628 89.3357 16.9435C88.8332 17.1685 88.2857 17.389 88.1207 17.9718C88.0391 18.534 88.1566 19.1071 88.4529 19.5918C86.1224 20.05 83.7577 20.3127 81.3834 20.377C76.468 20.5198 71.5484 20.3981 66.6459 20.0125C60.6737 19.756 60.0985 21.256 58.642 23.2578C57.9845 20.8123 57.2622 18.3848 56.4752 15.9753C56.4404 15.8548 56.3599 15.7527 56.2509 15.6907C56.142 15.6286 56.0131 15.6115 55.8917 15.643C46.6997 17.5428 29.7549 21.5845 26.0679 22.453C25.9692 22.4072 25.8599 22.3887 25.7515 22.3996C25.6431 22.4104 25.5397 22.4502 25.452 22.5148C25.3643 22.5793 25.2955 22.6663 25.2529 22.7665C25.2104 22.8667 25.1955 22.9766 25.2099 23.0845C26.8802 34.7928 30.7179 47.02 33.3662 58.519C33.3827 58.6 35.1804 64.633 35.8037 66.73H35.7954C35.8202 66.8275 35.8607 66.9648 35.9169 67.1185C35.9739 67.3135 36.0062 67.4268 36.0062 67.4343L36.0227 67.4185C36.0977 67.6128 36.1682 67.8153 36.2327 68.0013C36.2705 68.1158 36.3494 68.2122 36.4541 68.272C36.5587 68.3318 36.6819 68.3508 36.7997 68.3253C42.7352 67.054 54.7202 63.556 60.1135 61.6368C62.3889 60.8268 64.6299 59.908 66.8747 59.0118C67.0079 58.9745 67.1214 58.8869 67.1914 58.7676C67.2613 58.6483 67.2822 58.5065 67.2497 58.372C65.5817 52.9383 63.9617 46.0143 62.7227 40.4755C62.3664 40.4515 62.0185 40.4193 61.6622 40.3788C63.0475 46.5948 64.27 52.1118 66.1 58.21C59.071 61.0848 45.4179 64.6638 37.2474 66.4293C35.2937 58.09 29.6657 40.696 27.9752 32.4603C27.3437 29.3993 26.7984 26.3223 26.3394 23.2293C35.3072 21.6138 29.1527 22.1905 55.7102 16.6533C56.9897 20.6455 58.5849 27.6265 59.5562 31.6998C59.9049 31.7395 60.2447 31.7748 60.5934 31.813C60.0414 29.5323 59.7684 27.4735 58.8032 23.8443C60.1502 22.5798 60.0002 20.7303 66.235 20.9778C69.61 21.1188 73.6937 21.6618 80.8599 21.4068C82.6524 21.3408 87.1359 21.0768 88.8444 20.5248C90.1171 23.7002 91.2287 26.9378 92.1752 30.2253C87.7314 30.247 82.0382 33.85 79.8002 35.2503C76.2632 37.471 72.382 39.8493 68.1317 39.8493C65.4235 39.8493 62.8532 38.59 60.1554 38.3433C58.9239 38.23 57.4502 38.2623 56.4624 39.088C56.2119 39.2988 56.4947 39.6063 56.746 39.574C57.3212 39.493 57.8799 39.3393 58.4627 39.2905C62.1677 39.0123 65.8877 41.9065 71.5877 40.4485C78.3639 38.6958 82.3487 33.4683 89.9694 31.6218C90.7794 31.4275 91.6457 31.4118 92.4632 31.2468C92.5929 31.7245 92.7227 32.194 92.8524 32.6718C92.8914 32.807 92.9733 32.9259 93.0857 33.0106C93.1981 33.0952 93.335 33.1411 93.4757 33.1413C103.29 33.919 112.927 31.522 122.158 28.4283C124.725 27.5703 127.365 26.7603 129.835 25.6593C130.458 25.3833 130.021 24.4353 129.405 24.6055Z" fill="#1D2035"/>
<path d="M69.5468 58.8428C69.5629 59.1058 69.5301 59.3695 69.4501 59.6205C69.1096 60.6405 68.0731 61.0935 67.1333 61.41C59.3783 63.9885 46.8083 67.0755 39.5528 68.892C38.4188 69.1755 37.1401 69.621 35.9738 69.2888C35.495 69.1146 35.0657 68.8267 34.7228 68.4498C34.38 68.0728 34.1339 67.6182 34.0058 67.125C33.2348 64.6766 32.6023 62.1866 32.1113 59.667C30.2483 60.0315 28.3943 60.477 26.5613 60.987C24.5768 61.5375 22.2691 62.5658 21.9533 64.6958C21.6293 66.8985 23.6866 68.6475 25.6216 69.5543C34.4588 73.6905 54.8513 73.7385 64.6688 73.344C67.7984 73.2768 70.9188 72.9821 74.0056 72.462C77.4886 71.814 87.1538 69.0795 87.4306 65.538C87.8431 60.6668 74.3948 59.2545 69.5468 58.8428Z" fill="#1D2035"/>
<circle cx="90" cy="114" r="29.25" fill="#FADCDF"/>
<path d="M85.275 97.6875H91.9688V103.744C91.9688 105.529 91.9688 106.422 92.3162 107.103C92.6218 107.703 93.1094 108.191 93.7092 108.496C94.391 108.844 95.2836 108.844 97.0687 108.844H103.125V113.625H104.719C105.599 113.625 106.312 114.339 106.312 115.219C106.312 116.099 105.599 116.812 104.719 116.812H76.0313C75.151 116.812 74.4375 116.099 74.4375 115.219C74.4375 114.339 75.151 113.625 76.0312 113.625H77.625V105.338C77.625 102.66 77.625 101.321 78.1461 100.298C78.6045 99.3985 79.336 98.667 80.2356 98.2086C81.2584 97.6875 82.5972 97.6875 85.275 97.6875Z" fill="#E32B3D"/>
<path d="M102.839 105.656C102.682 105.312 102.464 104.995 102.191 104.723L96.0898 98.6212C95.8173 98.3486 95.5005 98.1305 95.1562 97.9739V104.859C95.1562 105.3 95.513 105.656 95.9531 105.656H102.839Z" fill="#E32B3D"/>
<path d="M79.2188 121.594C79.2188 120.714 79.9323 120 80.8125 120C81.6927 120 82.4062 120.714 82.4062 121.594V124.781C82.4062 125.661 81.6927 126.375 80.8125 126.375C79.9323 126.375 79.2188 125.661 79.2188 124.781V121.594Z" fill="#E32B3D"/>
<path d="M98.3438 121.594C98.3438 120.714 99.0573 120 99.9375 120C100.818 120 101.531 120.714 101.531 121.594V124.781C101.531 125.661 100.818 126.375 99.9375 126.375C99.0573 126.375 98.3438 125.661 98.3438 124.781V121.594Z" fill="#E32B3D"/>
<path d="M87.1875 120C86.3073 120 85.5938 120.714 85.5938 121.594V127.969C85.5938 128.849 86.3073 129.562 87.1875 129.562C88.0677 129.562 88.7812 128.849 88.7812 127.969V121.594C88.7812 120.714 88.0677 120 87.1875 120Z" fill="#E32B3D"/>
<path d="M91.9688 121.594C91.9688 120.714 92.6823 120 93.5625 120C94.4427 120 95.1562 120.714 95.1562 121.594V127.969C95.1562 128.849 94.4427 129.562 93.5625 129.562C92.6823 129.562 91.9688 128.849 91.9688 127.969V121.594Z" fill="#E32B3D"/>
</svg>
