<svg width="97" height="97" viewBox="0 0 97 97" fill="none" xmlns="http://www.w3.org/2000/svg">
<g id="shield-check">
<path id="Icon" fill-rule="evenodd" clip-rule="evenodd" d="M47.1481 8.61327C47.9049 8.50391 48.6734 8.50391 49.4302 8.61327C50.3024 8.7393 51.1139 9.04589 51.7583 9.28934L51.931 9.3544L73.8416 17.5703C76.3061 18.4904 78.4704 19.2985 80.1372 20.7674C81.5953 22.0524 82.7185 23.6732 83.4098 25.4897C84.1999 27.5661 84.1966 29.8764 84.1927 32.507L84.1922 48.1523C84.1922 58.7113 77.7653 67.3743 71.0817 73.5871C64.3133 79.8788 56.6181 84.2825 52.6912 86.3285L52.54 86.4076C51.8542 86.7672 50.9659 87.2329 49.8126 87.4573C48.8669 87.6413 47.7114 87.6413 46.7656 87.4573C45.6124 87.2329 44.7241 86.7672 44.0383 86.4076L43.887 86.3285C39.9602 84.2825 32.265 79.8788 25.4965 73.5871C18.8129 67.3743 12.3861 58.7113 12.3861 48.1523L12.3855 32.507C12.3817 29.8764 12.3784 27.5661 13.1685 25.4897C13.8597 23.6732 14.983 22.0524 16.4411 20.7674C18.1079 19.2985 20.2722 18.4904 22.7367 17.5703L44.6473 9.35441L44.8199 9.28933C45.4643 9.04589 46.2759 8.7393 47.1481 8.61327ZM63.0766 42.9951C64.6345 41.4373 64.6345 38.9114 63.0766 37.3535C61.5187 35.7956 58.9929 35.7956 57.435 37.3535L44.2989 50.4896L39.1412 45.332C37.5833 43.7741 35.0575 43.7741 33.4996 45.332C31.9417 46.8899 31.9417 49.4157 33.4996 50.9736L41.478 58.9521C43.0359 60.51 45.5618 60.51 47.1197 58.9521L63.0766 42.9951Z" fill="#1ED29C"/>
</g>
</svg>
