<svg width="20" height="20" viewBox="0 0 20 20" fill="none" xmlns="http://www.w3.org/2000/svg">
<g id="eye-slash">
<path id="Icon" d="M2.5 2.5L17.5 17.5M8.20357 8.26137C7.76803 8.71129 7.5 9.32435 7.5 10C7.5 11.3807 8.61929 12.5 10 12.5C10.6854 12.5 11.3064 12.2242 11.758 11.7775M5.41667 5.53929C3.83391 6.58361 2.62836 8.15328 2.04834 9.99997C3.11022 13.3809 6.2688 15.8333 10.0002 15.8333C11.6576 15.8333 13.202 15.3495 14.4998 14.5153M9.16667 4.20783C9.44081 4.18061 9.71886 4.16667 10.0002 4.16667C13.7315 4.16667 16.8901 6.61909 17.952 10C17.718 10.745 17.3823 11.4448 16.961 12.0833" stroke="#4A5E6D" stroke-width="2" stroke-linecap="round" stroke-linejoin="round"/>
</g>
</svg>
