<svg width="20" height="20" viewBox="0 0 20 20" fill="none" xmlns="http://www.w3.org/2000/svg">
<g id="lock-alt">
<path id="Icon" d="M9.99992 12.0833V13.75M5.83325 8.35732C6.2261 8.33333 6.71041 8.33333 7.33325 8.33333H12.6666C13.2894 8.33333 13.7737 8.33333 14.1666 8.35732M5.83325 8.35732C5.34299 8.38725 4.99516 8.45455 4.69828 8.60582C4.22787 8.8455 3.84542 9.22795 3.60574 9.69836C3.33325 10.2331 3.33325 10.9332 3.33325 12.3333V13.5C3.33325 14.9001 3.33325 15.6002 3.60574 16.135C3.84542 16.6054 4.22787 16.9878 4.69828 17.2275C5.23306 17.5 5.93312 17.5 7.33325 17.5H12.6666C14.0667 17.5 14.7668 17.5 15.3016 17.2275C15.772 16.9878 16.1544 16.6054 16.3941 16.135C16.6666 15.6002 16.6666 14.9001 16.6666 13.5V12.3333C16.6666 10.9332 16.6666 10.2331 16.3941 9.69836C16.1544 9.22795 15.772 8.8455 15.3016 8.60582C15.0047 8.45455 14.6569 8.38725 14.1666 8.35732M5.83325 8.35732V6.66667C5.83325 4.36548 7.69873 2.5 9.99992 2.5C12.3011 2.5 14.1666 4.36548 14.1666 6.66667V8.35732" stroke="#4A5E6D" stroke-width="2" stroke-linecap="round" stroke-linejoin="round"/>
</g>
</svg>
