<svg width="21" height="20" viewBox="0 0 21 20" fill="none" xmlns="http://www.w3.org/2000/svg">
<g id="mail">
<path id="Icon" d="M3 6.66699L7.5416 9.69472C8.61079 10.4075 9.14539 10.7639 9.72321 10.9024C10.2338 11.0247 10.7662 11.0247 11.2768 10.9024C11.8546 10.7639 12.3892 10.4075 13.4584 9.69472L18 6.66699M5.66667 15.8337H15.3333C16.2668 15.8337 16.7335 15.8337 17.09 15.652C17.4036 15.4922 17.6586 15.2372 17.8183 14.9236C18 14.5671 18 14.1004 18 13.167V6.83366C18 5.90024 18 5.43353 17.8183 5.07701C17.6586 4.7634 17.4036 4.50844 17.09 4.34865C16.7335 4.16699 16.2668 4.16699 15.3333 4.16699H5.66667C4.73325 4.16699 4.26654 4.16699 3.91002 4.34865C3.59641 4.50844 3.34144 4.7634 3.18166 5.07701C3 5.43353 3 5.90024 3 6.83366V13.167C3 14.1004 3 14.5671 3.18166 14.9236C3.34144 15.2372 3.59641 15.4922 3.91002 15.652C4.26654 15.8337 4.73325 15.8337 5.66667 15.8337Z" stroke="#4A5E6D" stroke-width="2" stroke-linecap="round" stroke-linejoin="round"/>
</g>
</svg>
