<svg width="25" height="24" viewBox="0 0 25 24" fill="none" xmlns="http://www.w3.org/2000/svg">
<g id="message-circle-question">
<path id="Icon" fill-rule="evenodd" clip-rule="evenodd" d="M2.80007 20.05C2.85537 19.8997 2.92003 19.7356 2.98854 19.5616C3.37068 18.5914 3.87301 17.3161 3.54425 16.4457C2.87798 15.1053 2.50391 13.595 2.50391 12C2.50391 6.47715 6.98105 2 12.5039 2C18.0267 2 22.5039 6.47715 22.5039 12C22.5039 17.5228 18.0267 22 12.5039 22H3.50471C3.17039 22 2.8581 21.8329 2.67263 21.5548C2.48721 21.2767 2.45297 20.9244 2.58136 20.6158C2.65877 20.4291 2.73023 20.2397 2.80007 20.05ZM12.467 9.25C12.0024 9.25 11.6095 9.56774 11.4985 9.99926C11.3608 10.5341 10.8156 10.8561 10.2808 10.7184C9.74592 10.5808 9.42393 10.0356 9.56159 9.50074C9.89457 8.20704 11.0678 7.25 12.467 7.25C14.1239 7.25 15.467 8.59315 15.467 10.25C15.467 11.1814 15.0125 11.7993 14.5365 12.2587C14.3437 12.4449 14.1241 12.6269 13.9267 12.7905L13.8409 12.8616C13.6105 13.0533 13.39 13.2413 13.1741 13.4571C12.7836 13.8476 12.1505 13.8476 11.7599 13.4571C11.3694 13.0666 11.3694 12.4334 11.7599 12.0429C12.0441 11.7587 12.3236 11.5223 12.5619 11.324L12.6534 11.248C12.858 11.0782 13.0132 10.9494 13.1476 10.8197C13.4215 10.5553 13.467 10.4232 13.467 10.25C13.467 9.69772 13.0193 9.25 12.467 9.25ZM13.4697 15.75C13.4697 16.3023 13.022 16.75 12.4697 16.75C11.9174 16.75 11.4697 16.3023 11.4697 15.75C11.4697 15.1977 11.9174 14.75 12.4697 14.75C13.022 14.75 13.4697 15.1977 13.4697 15.75Z" fill="#0CAFB4"/>
</g>
</svg>
