<svg width="25" height="24" viewBox="0 0 25 24" fill="none" xmlns="http://www.w3.org/2000/svg">
<g id="shield-check">
<path id="Icon" fill-rule="evenodd" clip-rule="evenodd" d="M12.2142 2.08892C12.4039 2.06151 12.5966 2.06151 12.7863 2.08892C13.0049 2.12051 13.2084 2.19737 13.3699 2.25839L13.4132 2.2747L18.9056 4.33423C19.5234 4.56488 20.066 4.76743 20.4838 5.13565C20.8493 5.45778 21.1309 5.86407 21.3041 6.31942C21.5022 6.83992 21.5014 7.41904 21.5004 8.07848L21.5003 12.0004C21.5003 14.6472 19.8892 16.8188 18.2138 18.3762C16.5171 19.9534 14.5881 21.0573 13.6038 21.5702L13.5658 21.59C13.3939 21.6801 13.1713 21.7969 12.8822 21.8531C12.6451 21.8993 12.3554 21.8993 12.1184 21.8531C11.8293 21.7969 11.6066 21.6801 11.4347 21.59L11.3968 21.5702C10.4124 21.0573 8.48341 19.9534 6.78673 18.3762C5.11132 16.8188 3.50026 14.6472 3.50026 12.0004L3.50013 8.07849C3.49918 7.41904 3.49834 6.83992 3.69641 6.31942C3.86968 5.86407 4.15124 5.45778 4.51675 5.13565C4.93457 4.76743 5.47712 4.56488 6.09491 4.33422L11.5873 2.2747L11.6306 2.25839C11.7922 2.19737 11.9956 2.12051 12.2142 2.08892ZM16.2071 10.7076C16.5976 10.3171 16.5976 9.68391 16.2071 9.29338C15.8166 8.90286 15.1834 8.90286 14.7929 9.29338L11.5 12.5863L10.2071 11.2934C9.81658 10.9029 9.18342 10.9029 8.79289 11.2934C8.40237 11.6839 8.40237 12.3171 8.79289 12.7076L10.7929 14.7076C11.1834 15.0981 11.8166 15.0981 12.2071 14.7076L16.2071 10.7076Z" fill="#0CAFB4"/>
</g>
</svg>
