<svg width="25" height="24" viewBox="0 0 25 24" fill="none" xmlns="http://www.w3.org/2000/svg">
<g id="user-pen">
<g id="Icon">
<path d="M11.5 2C8.73858 2 6.5 4.23858 6.5 7C6.5 9.76142 8.73858 12 11.5 12C14.2614 12 16.5 9.76142 16.5 7C16.5 4.23858 14.2614 2 11.5 2Z" fill="#0CAFB4"/>
<path d="M11.5 13C7.08172 13 3.5 16.5817 3.5 21C3.5 21.5523 3.94772 22 4.5 22H10.5391C10.4722 21.6295 10.5064 21.3184 10.5303 21.1487C10.5602 20.9359 10.6156 20.7014 10.6541 20.538L10.7233 20.2436C10.8523 19.6931 10.9662 19.2074 11.1615 18.742C11.3333 18.3325 11.55 17.9433 11.8077 17.5817C12.1005 17.1706 12.4536 16.8181 12.8536 16.4185L15.309 13.9632C14.1765 13.3489 12.879 13 11.5 13Z" fill="#0CAFB4"/>
<path d="M18.5112 13.5C19.1985 12.8127 20.3127 12.8127 21 13.5C21.6873 14.1873 21.6873 15.3015 21 15.9888L16.9254 20.1526C16.4141 20.664 16.1584 20.9197 15.867 21.1226C15.6083 21.3027 15.3293 21.4517 15.0357 21.5663C14.7049 21.6954 14.3501 21.7655 13.6408 21.9057L13.5439 21.9249C13.1385 22.005 12.9357 22.0451 12.7937 21.9844C12.6697 21.9313 12.5723 21.8304 12.5238 21.7046C12.4682 21.5605 12.5155 21.3593 12.6101 20.957L12.644 20.8127C12.7991 20.1531 12.8766 19.8232 13.0056 19.5157C13.1201 19.2427 13.2646 18.9833 13.4364 18.7422C13.6299 18.4706 13.8695 18.231 14.3486 17.7519L18.5112 13.5Z" fill="#0CAFB4"/>
</g>
</g>
</svg>
